<?xml version="1.0" encoding="utf-8"?>
<!-- Generator: Adobe Illustrator 25.2.3, SVG Export Plug-In . SVG Version: 6.00 Build 0)  -->
<svg version="1.1" id="Слой_1" xmlns="http://www.w3.org/2000/svg" xmlns:xlink="http://www.w3.org/1999/xlink" x="0px" y="0px"
	 viewBox="0 0 30 30" style="enable-background:new 0 0 30 30;" xml:space="preserve">
<path d="M0.1,6.1l-0.2,17.5c0,3.5,2.7,6.3,6.2,6.3l17.5,0.2c3.5,0,6.3-2.7,6.3-6.2l0.2-17.5c0-3.5-2.7-6.3-6.2-6.3L6.4-0.1
	C3-0.1,0.1,2.6,0.1,6.1z M23.7,20.1l0,3.7L9.9,23.7l0-3.7L23.7,20.1z M8.3,21.8c0,1.2-1,2.2-2.2,2.2s-2.2-1-2.2-2.2s1-2.2,2.2-2.2
	S8.3,20.6,8.3,21.8z M23.9,5.1l0,3.7l-7-0.1c-4.2-0.1-4,5-0.1,5l7,0.1l0,3.7L10,17.4l0-3.7l2.2,0C9,11.9,8.9,4.9,15.4,5L23.9,5.1z"
	/>
</svg>
